<svg xmlns="http://www.w3.org/2000/svg" viewBox="0 0 132.31 44.23"><defs><style>.cls-1{fill:#bdbcbc;}.cls-2{fill:#1d1d1b;}.cls-3{fill:#fff;}</style></defs><g id="Lager_2" data-name="Lager 2"><g id="Lager_1-2" data-name="Lager 1"><path class="cls-1" d="M121.77,0H9.33l-1,0A13.77,13.77,0,0,0,6.1.21,7.4,7.4,0,0,0,4,.9,7,7,0,0,0,2.21,2.21,6.73,6.73,0,0,0,.91,4a7.12,7.12,0,0,0-.7,2.1A15.12,15.12,0,0,0,0,8.32c0,.34,0,.68,0,1V34.89c0,.35,0,.68,0,1a15.12,15.12,0,0,0,.19,2.22,7.12,7.12,0,0,0,.7,2.1A6.73,6.73,0,0,0,2.21,42,7.2,7.2,0,0,0,4,43.32a7.75,7.75,0,0,0,2.1.7,15,15,0,0,0,2.22.19H124A14.87,14.87,0,0,0,126.2,44a7.93,7.93,0,0,0,2.11-.7A7.2,7.2,0,0,0,130.1,42a7,7,0,0,0,1.3-1.79,7.4,7.4,0,0,0,.69-2.1,13.88,13.88,0,0,0,.2-2.22c0-.34,0-.67,0-1s0-.8,0-1.21V10.54c0-.4,0-.8,0-1.2s0-.68,0-1a13.88,13.88,0,0,0-.2-2.22A7.4,7.4,0,0,0,131.4,4,7.15,7.15,0,0,0,128.31.9,7.57,7.57,0,0,0,126.2.21,13.64,13.64,0,0,0,124,0l-1,0Z"/><path class="cls-2" d="M9.34,43.26h-1a14.26,14.26,0,0,1-2.07-.18,6.68,6.68,0,0,1-1.83-.61A6.16,6.16,0,0,1,1.17,38,13.82,13.82,0,0,1,1,35.89c0-.24,0-1,0-1V9.34s0-.77,0-1a14.87,14.87,0,0,1,.18-2.07,6.32,6.32,0,0,1,.61-1.84A6,6,0,0,1,2.89,2.89,6.63,6.63,0,0,1,4.44,1.76a6.78,6.78,0,0,1,1.83-.6A15.13,15.13,0,0,1,8.34,1H124a14.86,14.86,0,0,1,2.06.18,6.82,6.82,0,0,1,1.85.61,6.21,6.21,0,0,1,1.53,1.12,6,6,0,0,1,1.14,1.55,6.54,6.54,0,0,1,.59,1.83,13.52,13.52,0,0,1,.19,2.08v1c0,.41,0,.81,0,1.2V33.68c0,.41,0,.8,0,1.19v1a13.25,13.25,0,0,1-.19,2.05,6.18,6.18,0,0,1-.6,1.85,5.86,5.86,0,0,1-1.12,1.53,5.93,5.93,0,0,1-1.55,1.13,6.75,6.75,0,0,1-1.84.61,14,14,0,0,1-2.07.18H9.34Z"/><path class="cls-3" d="M27.39,22.45a5.49,5.49,0,0,1,2.6-4.6,5.6,5.6,0,0,0-4.41-2.38c-1.86-.2-3.66,1.11-4.6,1.11s-2.43-1.09-4-1.06a5.88,5.88,0,0,0-4.95,3c-2.14,3.7-.54,9.14,1.51,12.13,1,1.47,2.22,3.1,3.79,3s2.1-1,3.95-1,2.37,1,4,.94,2.69-1.47,3.67-2.95a12.05,12.05,0,0,0,1.68-3.42A5.29,5.29,0,0,1,27.39,22.45Z"/><path class="cls-3" d="M24.37,13.5A5.43,5.43,0,0,0,25.6,9.64a5.47,5.47,0,0,0-3.55,1.84,5.09,5.09,0,0,0-1.26,3.71A4.53,4.53,0,0,0,24.37,13.5Z"/><path class="cls-3" d="M46.77,30H41.54l-1.26,3.71H38.06L43,20h2.3l5,13.73H48Zm-4.69-1.72h4.15l-2-6h0Z"/><path class="cls-3" d="M61,28.71c0,3.11-1.67,5.11-4.18,5.11a3.39,3.39,0,0,1-3.15-1.75h0v5h-2V23.71h2v1.66h0a3.57,3.57,0,0,1,3.19-1.77C59.31,23.6,61,25.61,61,28.71Zm-2.11,0c0-2-1.05-3.36-2.65-3.36s-2.63,1.37-2.63,3.36,1.06,3.37,2.63,3.37S58.88,30.76,58.88,28.71Z"/><path class="cls-3" d="M72,28.71c0,3.11-1.67,5.11-4.18,5.11a3.39,3.39,0,0,1-3.15-1.75h-.05v5h-2V23.71h2v1.66h0a3.56,3.56,0,0,1,3.19-1.77C70.33,23.6,72,25.61,72,28.71Zm-2.12,0c0-2-1-3.36-2.64-3.36s-2.63,1.37-2.63,3.36,1.06,3.37,2.63,3.37S69.89,30.76,69.89,28.71Z"/><path class="cls-3" d="M79.29,29.89c.15,1.36,1.47,2.26,3.28,2.26s3-.9,3-2.12S84.8,28.32,83,27.89l-1.78-.43c-2.52-.61-3.69-1.79-3.69-3.7,0-2.37,2.06-4,5-4s4.89,1.63,5,4H85.42c-.12-1.37-1.25-2.2-2.91-2.2s-2.79.83-2.79,2.05c0,1,.73,1.54,2.5,2l1.51.37c2.82.67,4,1.8,4,3.81,0,2.57-2,4.18-5.3,4.18-3,0-5.1-1.57-5.24-4.06Z"/><path class="cls-3" d="M92.15,21.34v2.37h1.91v1.63H92.15v5.51c0,.86.38,1.26,1.22,1.26a6.15,6.15,0,0,0,.68,0v1.62a5.47,5.47,0,0,1-1.15.1c-2,0-2.81-.77-2.81-2.71V25.34H88.63V23.71h1.46V21.34Z"/><path class="cls-3" d="M95.16,28.71c0-3.15,1.85-5.13,4.75-5.13s4.74,2,4.74,5.13-1.83,5.13-4.74,5.13S95.16,31.87,95.16,28.71Zm7.4,0c0-2.16-1-3.43-2.65-3.43s-2.66,1.28-2.66,3.43,1,3.44,2.66,3.44S102.56,30.88,102.56,28.71Z"/><path class="cls-3" d="M106.35,23.71h2v1.7h0a2.38,2.38,0,0,1,2.4-1.81,3,3,0,0,1,.71.08V25.6a2.85,2.85,0,0,0-.93-.12,2.07,2.07,0,0,0-2.14,2.3v5.94h-2.05Z"/><path class="cls-3" d="M120.94,30.78c-.27,1.82-2,3.06-4.31,3.06-2.91,0-4.72-2-4.72-5.08s1.82-5.18,4.63-5.18,4.52,1.91,4.52,4.94v.71H114v.12a2.61,2.61,0,0,0,2.69,2.84A2.27,2.27,0,0,0,119,30.78Zm-6.94-3h5a2.41,2.41,0,0,0-2.46-2.54A2.53,2.53,0,0,0,114,27.79Z"/><path class="cls-3" d="M41.82,9.65c2,0,3.11,1.21,3.11,3.28s-1.14,3.32-3.11,3.32H39.44V9.65Zm-1.36,5.67h1.25A2.07,2.07,0,0,0,43.88,13a2.07,2.07,0,0,0-2.17-2.36H40.46Z"/><path class="cls-3" d="M46.08,13.76a2.36,2.36,0,1,1,4.7,0,2.36,2.36,0,1,1-4.7,0Zm3.69,0c0-1.08-.49-1.71-1.34-1.71s-1.33.63-1.33,1.71.48,1.71,1.33,1.71S49.77,14.84,49.77,13.76Z"/><path class="cls-3" d="M57,16.25H56l-1-3.67H54.9l-1,3.67h-1l-1.37-5h1l.89,3.8h.07l1-3.8h.94l1,3.8h.08l.89-3.8h1Z"/><path class="cls-3" d="M59.54,11.27h1v.79h.07a1.49,1.49,0,0,1,1.49-.88A1.61,1.61,0,0,1,63.77,13v3.22h-1v-3c0-.8-.35-1.19-1.08-1.19a1.14,1.14,0,0,0-1.18,1.26v2.91h-1Z"/><path class="cls-3" d="M65.34,9.33h1v6.92h-1Z"/><path class="cls-3" d="M67.69,13.76a2.36,2.36,0,1,1,4.69,0,2.36,2.36,0,1,1-4.69,0Zm3.68,0c0-1.08-.48-1.71-1.33-1.71s-1.34.63-1.34,1.71.48,1.71,1.34,1.71S71.37,14.84,71.37,13.76Z"/><path class="cls-3" d="M73.42,14.84c0-.89.66-1.41,1.85-1.48l1.35-.08v-.43c0-.53-.35-.82-1-.82s-.93.2-1,.55h-1c.1-.86.9-1.4,2-1.4s2,.62,2,1.67v3.4h-.95v-.7h-.08a1.67,1.67,0,0,1-1.49.78A1.5,1.5,0,0,1,73.42,14.84Zm3.2-.42V14l-1.22.08c-.68,0-1,.28-1,.72s.39.71.93.71A1.18,1.18,0,0,0,76.62,14.42Z"/><path class="cls-3" d="M78.89,13.76c0-1.57.81-2.57,2.06-2.57a1.64,1.64,0,0,1,1.53.87h.07V9.33h1v6.92h-1v-.79h-.07a1.73,1.73,0,0,1-1.57.87C79.69,16.33,78.89,15.34,78.89,13.76Zm1,0c0,1.06.5,1.69,1.33,1.69s1.34-.64,1.34-1.69-.52-1.69-1.34-1.69S79.9,12.71,79.9,13.76Z"/><path class="cls-3" d="M87.6,13.76a2.36,2.36,0,1,1,4.7,0,2.36,2.36,0,1,1-4.7,0Zm3.69,0c0-1.08-.49-1.71-1.34-1.71s-1.33.63-1.33,1.71.48,1.71,1.33,1.71S91.29,14.84,91.29,13.76Z"/><path class="cls-3" d="M93.62,11.27h.94v.79h.07a1.5,1.5,0,0,1,1.49-.88A1.61,1.61,0,0,1,97.84,13v3.22h-1v-3c0-.8-.35-1.19-1.07-1.19a1.14,1.14,0,0,0-1.19,1.26v2.91h-1Z"/><path class="cls-3" d="M103.4,10v1.26h1.07v.83H103.4v2.56c0,.52.21.75.7.75l.37,0v.82a4.15,4.15,0,0,1-.53.05c-1.09,0-1.53-.39-1.53-1.35V12.12h-.79v-.83h.79V10Z"/><path class="cls-3" d="M105.82,9.33h1v2.74h.08a1.53,1.53,0,0,1,1.52-.89A1.64,1.64,0,0,1,110.1,13v3.21h-1v-3c0-.8-.37-1.2-1.07-1.2a1.16,1.16,0,0,0-1.25,1.26v2.91h-1Z"/><path class="cls-3" d="M115.83,14.91a2,2,0,0,1-2.16,1.44,2.27,2.27,0,0,1-2.3-2.57,2.3,2.3,0,0,1,2.3-2.6c1.38,0,2.22.94,2.22,2.51V14h-3.52v.05a1.32,1.32,0,0,0,1.33,1.43,1.18,1.18,0,0,0,1.18-.6Zm-3.46-1.61h2.52A1.2,1.2,0,0,0,113.66,12,1.28,1.28,0,0,0,112.37,13.3Z"/></g></g></svg>