<svg xmlns="http://www.w3.org/2000/svg" xmlns:xlink="http://www.w3.org/1999/xlink" viewBox="0 0 133.15 39.45"><defs><style>.cls-1{fill:#1d1d1b;}.cls-2{fill:#b0adab;}.cls-3,.cls-4{fill:#fff;}.cls-3{stroke:#fff;stroke-miterlimit:10;stroke-width:0.08px;}.cls-5{fill:#70c9f3;}.cls-6{fill:url(#linear-gradient);}.Graphic-Style-3{fill:url(#linear-gradient-2);}.cls-7{fill:url(#linear-gradient-3);}</style><linearGradient id="linear-gradient" x1="30.66" y1="19.73" x2="6.82" y2="19.73" gradientUnits="userSpaceOnUse"><stop offset="0" stop-color="#ffe000"/><stop offset="0.42" stop-color="#fabc00"/><stop offset="0.78" stop-color="#f6a400"/><stop offset="1" stop-color="#f59b00"/></linearGradient><linearGradient id="linear-gradient-2" x1="24.48" y1="21.99" x2="2.05" y2="44.42" gradientUnits="userSpaceOnUse"><stop offset="0" stop-color="#e7383d"/><stop offset="1" stop-color="#c81166"/></linearGradient><linearGradient id="linear-gradient-3" x1="1.95" y1="-5.06" x2="20.26" y2="13.25" gradientUnits="userSpaceOnUse"><stop offset="0" stop-color="#296"/><stop offset="0.15" stop-color="#33a064"/><stop offset="0.52" stop-color="#5baf5f"/><stop offset="0.82" stop-color="#73b95c"/><stop offset="1" stop-color="#7cbc5b"/></linearGradient></defs><g id="Lager_2" data-name="Lager 2"><g id="Lager_1-2" data-name="Lager 1"><rect class="cls-1" width="133.15" height="39.45" rx="4.93"/><path class="cls-2" d="M128.22.79a4.14,4.14,0,0,1,4.14,4.14V34.52a4.14,4.14,0,0,1-4.14,4.14H4.93A4.14,4.14,0,0,1,.79,34.52V4.93A4.15,4.15,0,0,1,4.93.79H128.22m0-.79H4.93A5,5,0,0,0,0,4.93V34.52a5,5,0,0,0,4.93,4.93H128.22a5,5,0,0,0,4.93-4.93V4.93A5,5,0,0,0,128.22,0Z"/><path class="cls-3" d="M46.77,10.1a2.64,2.64,0,0,1-.74,2,2.86,2.86,0,0,1-2.17.87,3,3,0,0,1-3.07-3.09A3.08,3.08,0,0,1,45.08,7a2.56,2.56,0,0,1,.92.66l-.52.52a2,2,0,0,0-1.62-.7,2.29,2.29,0,0,0-2.3,2.36,2.29,2.29,0,0,0,2.3,2.37,2.24,2.24,0,0,0,1.65-.66,1.84,1.84,0,0,0,.5-1.2H43.86V9.66h2.87A2.25,2.25,0,0,1,46.77,10.1Z"/><path class="cls-3" d="M51.32,7.63h-2.7V9.51h2.43v.71H48.62V12.1h2.7v.72H47.86V6.9h3.46Z"/><path class="cls-3" d="M54.52,12.82h-.76V7.63H52.11V6.9h4.07v.73H54.52Z"/><path class="cls-3" d="M59.12,12.82V6.9h.76v5.92Z"/><path class="cls-3" d="M63.25,12.82h-.76V7.63H60.84V6.9H64.9v.73H63.25Z"/><path class="cls-3" d="M72.6,12.06a3.09,3.09,0,0,1-4.34,0,3,3,0,0,1-.87-2.2,3,3,0,0,1,.87-2.19,3.07,3.07,0,0,1,4.34,0,3,3,0,0,1,.87,2.19A3,3,0,0,1,72.6,12.06Zm-3.78-.5a2.27,2.27,0,0,0,3.22,0,2.31,2.31,0,0,0,.66-1.7A2.32,2.32,0,0,0,72,8.16a2.29,2.29,0,0,0-3.22,0,2.36,2.36,0,0,0-.65,1.7A2.34,2.34,0,0,0,68.82,11.56Z"/><path class="cls-3" d="M74.54,12.82V6.9h.93l2.87,4.61h0l0-1.14V6.9h.76v5.92h-.79L75.3,8h0l0,1.14v3.68Z"/><path class="cls-4" d="M67.2,21.45a4.2,4.2,0,1,0,4.21,4.2A4.14,4.14,0,0,0,67.2,21.45Zm0,6.74a2.55,2.55,0,1,1,2.37-2.54A2.42,2.42,0,0,1,67.2,28.19ZM58,21.45a4.2,4.2,0,1,0,4.21,4.2A4.14,4.14,0,0,0,58,21.45Zm0,6.74a2.55,2.55,0,1,1,2.37-2.54A2.43,2.43,0,0,1,58,28.19ZM47.09,22.74v1.78h4.26a3.73,3.73,0,0,1-1,2.24,4.36,4.36,0,0,1-3.29,1.3,4.74,4.74,0,0,1,0-9.47,4.53,4.53,0,0,1,3.21,1.28l1.26-1.26a6.21,6.21,0,0,0-4.47-1.8,6.52,6.52,0,1,0,0,13,5.75,5.75,0,0,0,6.09-6,6.1,6.1,0,0,0-.1-1.11Zm44.69,1.38a3.9,3.9,0,0,0-3.59-2.67,4,4,0,0,0-4,4.2,4.1,4.1,0,0,0,4.16,4.19A4.17,4.17,0,0,0,91.89,28l-1.43-1a2.4,2.4,0,0,1-2.07,1.16,2.14,2.14,0,0,1-2-1.27L92,24.6Zm-5.72,1.4a2.29,2.29,0,0,1,2.19-2.44,1.63,1.63,0,0,1,1.56.88ZM81.5,29.59h1.84V17.26H81.5Zm-3-7.2h-.06a2.93,2.93,0,0,0-2.21-.94,4.2,4.2,0,0,0,0,8.39,2.87,2.87,0,0,0,2.21-.95h.06v.6c0,1.61-.86,2.47-2.24,2.47a2.3,2.3,0,0,1-2.11-1.5l-1.61.67a4,4,0,0,0,3.72,2.48c2.16,0,4-1.27,4-4.37V21.71H78.48Zm-2.11,5.8A2.4,2.4,0,0,1,74,25.67a2.42,2.42,0,0,1,2.34-2.56,2.37,2.37,0,0,1,2.24,2.56A2.34,2.34,0,0,1,76.37,28.19Zm24-10.93H96V29.59h1.84V24.92h2.57a3.84,3.84,0,1,0,0-7.66Zm0,5.94H97.84V19h2.62a2.11,2.11,0,1,1,0,4.22Zm11.37-1.77a3.45,3.45,0,0,0-3.28,1.89l1.64.68a1.73,1.73,0,0,1,1.68-.9,1.76,1.76,0,0,1,1.93,1.58v.13a4.07,4.07,0,0,0-1.92-.48c-1.76,0-3.55,1-3.55,2.78a2.84,2.84,0,0,0,3.06,2.71,2.6,2.6,0,0,0,2.35-1.2h.06v.95h1.78V24.84C115.58,22.65,113.94,21.43,111.83,21.43Zm-.22,6.76c-.6,0-1.44-.3-1.44-1.05,0-.95,1-1.31,2-1.31a3.25,3.25,0,0,1,1.68.41A2.23,2.23,0,0,1,111.61,28.19Zm10.44-6.49-2.11,5.35h-.06l-2.19-5.35h-2L119,29.17l-1.87,4.16H119L124.1,21.7Zm-16.58,7.89h1.84V17.26h-1.84Z"/><path class="cls-5" d="M10.29,7.44a2,2,0,0,0-.45,1.39V30.62A2,2,0,0,0,10.29,32l.08.07,12.2-12.21v-.29L10.37,7.37Z"/><path class="cls-6" d="M26.64,23.94l-4.07-4.07v-.29l4.08-4.07.09.05,4.82,2.74c1.38.79,1.38,2.07,0,2.85l-4.82,2.74Z"/><path class="Graphic-Style-3" d="M26.74,23.89l-4.17-4.16L10.29,32a1.61,1.61,0,0,0,2.05.06l14.4-8.18"/><path class="cls-7" d="M26.74,15.56,12.34,7.38a1.61,1.61,0,0,0-2.05.06L22.57,19.73Z"/></g></g></svg>