<svg xmlns="http://www.w3.org/2000/svg" viewBox="0 0 132.56 132.56"><defs><style>.cls-1{fill:#1d1d1b;}.cls-2{fill:#fff;}.cls-3{fill:none;stroke:#1d1d1b;stroke-miterlimit:10;stroke-width:0.25px;}</style></defs><g id="Lager_2" data-name="Lager 2"><g id="Lager_1-2" data-name="Lager 1"><rect class="cls-1" x="0.13" y="0.13" width="132.31" height="132.31" rx="27.47"/><path class="cls-2" d="M101.11,15.69A23.49,23.49,0,0,0,83.67,9.21a2,2,0,0,0,.21,3.91,19.62,19.62,0,0,1,14.55,5.42,23.34,23.34,0,0,1,7.13,16.78,1.95,1.95,0,0,0,2,1.94,2,2,0,0,0,1.94-2A27.27,27.27,0,0,0,101.11,15.69Z"/><path class="cls-2" d="M80.59,18.53a2,2,0,1,0,.52,3.88c3.49-.46,7.44,1,10.56,3.95a14.64,14.64,0,0,1,4.89,11.43,2,2,0,1,0,3.91.27,18.61,18.61,0,0,0-6.12-14.55C90.38,19.78,85.24,17.92,80.59,18.53Z"/><path class="cls-2" d="M80.62,31.25a5.54,5.54,0,0,1,4.43,1.21,8.09,8.09,0,0,1,2.78,6,2,2,0,1,0,3.91-.16,11.93,11.93,0,0,0-4.23-8.86,9.38,9.38,0,0,0-7.54-2,2,2,0,0,0-1.6,2.26,1.93,1.93,0,0,0,.54,1.06A2,2,0,0,0,80.62,31.25Z"/><path class="cls-2" d="M93,53.53,68,28.38a2.37,2.37,0,0,0-3.3,0c-.3.31-3.72,3.71-7.94,7.9V32.54a2.64,2.64,0,0,0-2.64-2.64H51.05a2.64,2.64,0,0,0-2.64,2.64v12c-4.83,4.79-8.84,8.79-8.84,8.79a1.08,1.08,0,0,0,0,1.55,1.1,1.1,0,0,0,.78.33l5.42,0V74.59a3.4,3.4,0,0,0,3.4,3.4H59.63V62.73a1.43,1.43,0,0,1,1.44-1.43H71.48a1.43,1.43,0,0,1,1.44,1.43V78H83.4a3.4,3.4,0,0,0,3.4-3.4V55.39l5.41,0a1.13,1.13,0,0,0,.78-.32A1.1,1.1,0,0,0,93,53.53Z"/><path class="cls-2" d="M.13,92.39V105A27.56,27.56,0,0,0,27.6,132.44H105A27.56,27.56,0,0,0,132.43,105V92.39Z"/><path class="cls-1" d="M30.07,119.72a1.37,1.37,0,0,1-.72-.21l-5.11-3.17H17.76A2.36,2.36,0,0,1,15.4,114V107a2.36,2.36,0,0,1,2.36-2.36H31.52A2.36,2.36,0,0,1,33.87,107V115a1.38,1.38,0,0,1-2.76,0v-7.51H18.16v6.13h6.48a1.39,1.39,0,0,1,.72.2l5.45,3.38a1.39,1.39,0,0,1-.74,2.56"/><path class="cls-1" d="M93.57,116.34H79.81A2.36,2.36,0,0,1,77.45,114V107a2.36,2.36,0,0,1,2.36-2.36H93.57a1.39,1.39,0,0,1,0,2.77H80.22v6.13H93.57a1.38,1.38,0,1,1,0,2.76"/><path class="cls-1" d="M72.81,116.34H58.76a2.07,2.07,0,0,1-2.07-2.07v-3.63a1.38,1.38,0,0,1,1.39-1.38H72.81a1.38,1.38,0,0,1,0,2.76H59.46v1.56H72.81a1.38,1.38,0,0,1,0,2.76"/><path class="cls-1" d="M72.81,107.45H58.08a1.39,1.39,0,1,1,0-2.77H72.81a1.39,1.39,0,0,1,0,2.77"/><path class="cls-1" d="M52.16,116.34a1.37,1.37,0,0,1-.73-.21l-12.08-7.57V115a1.38,1.38,0,0,1-2.76,0v-8.89a1.38,1.38,0,0,1,2.11-1.17l12.08,7.56v-6.39a1.38,1.38,0,1,1,2.76,0V115a1.39,1.39,0,0,1-.71,1.21,1.45,1.45,0,0,1-.67.17"/><path class="cls-1" d="M111.21,104.68H97.45a1.39,1.39,0,0,0,0,2.77h5.36v7.39a1.52,1.52,0,0,0,3,0v-7.39h5.36a1.39,1.39,0,0,0,0-2.77"/><path class="cls-1" d="M117.16,102.57a1.71,1.71,0,0,1-.15.71,2,2,0,0,1-.38.57,1.84,1.84,0,0,1-.57.38,1.7,1.7,0,0,1-.71.14,1.65,1.65,0,0,1-.7-.14,1.73,1.73,0,0,1-.57-.38,2.22,2.22,0,0,1-.39-.57,1.87,1.87,0,0,1-.14-.71,1.82,1.82,0,0,1,.14-.7,1.87,1.87,0,0,1,1-1,1.82,1.82,0,0,1,.7-.14,1.87,1.87,0,0,1,.71.14,2.06,2.06,0,0,1,.57.39,1.73,1.73,0,0,1,.38.57,1.66,1.66,0,0,1,.15.7m-.29,0a1.53,1.53,0,0,0-.12-.6,1.66,1.66,0,0,0-.32-.49,1.55,1.55,0,0,0-.48-.32,1.5,1.5,0,0,0-.6-.12,1.45,1.45,0,0,0-.59.12,1.55,1.55,0,0,0-.48.32,1.66,1.66,0,0,0-.32.49,1.72,1.72,0,0,0,0,1.21,1.66,1.66,0,0,0,.32.49,1.75,1.75,0,0,0,.48.32,1.45,1.45,0,0,0,.59.12,1.5,1.5,0,0,0,.6-.12,1.75,1.75,0,0,0,.48-.32,1.66,1.66,0,0,0,.32-.49,1.54,1.54,0,0,0,.12-.61m-1.21,1-.26-.83h-.23v.83h-.27v-2h.51a.47.47,0,0,1,.34.12.32.32,0,0,1,.1.18,1.06,1.06,0,0,1,0,.27,1.72,1.72,0,0,1,0,.26.42.42,0,0,1-.11.18.26.26,0,0,1-.1.07l.29.89Zm0-1.4a.71.71,0,0,0,0-.16.16.16,0,0,0,0-.11.2.2,0,0,0-.14,0h-.24v.64h.24a.17.17,0,0,0,.14,0,.37.37,0,0,0,0-.11.71.71,0,0,0,0-.16"/><path class="cls-1" d="M41,125a2.29,2.29,0,0,0,1,.24c.35,0,.53-.12.53-.32s-.18-.29-.61-.43c-.65-.23-1.08-.59-1.08-1.16s.58-1.2,1.54-1.2a2.54,2.54,0,0,1,1,.19l-.21.83a1.92,1.92,0,0,0-.84-.19c-.31,0-.48.12-.48.29s.2.27.68.45c.7.25,1,.62,1,1.16s-.52,1.22-1.64,1.22a2.82,2.82,0,0,1-1.13-.23Z"/><path class="cls-1" d="M48.87,124.65c0-.43,0-1,0-1.55h0c-.12.51-.28,1.09-.4,1.51L48.05,126h-.81l-.32-1.34c-.1-.41-.22-1-.31-1.51h0c0,.54,0,1.12-.06,1.55l0,1.37h-1l.24-3.83h1.38l.25,1c.11.43.22.94.3,1.41h0c.11-.47.24-1,.35-1.42l.29-1h1.35l.19,3.83h-1Z"/><path class="cls-1" d="M53.07,125.14l-.22.88H51.79l1.11-3.83h1.37L55.42,126H54.31l-.25-.88Zm.85-.76-.18-.69c-.05-.22-.13-.53-.19-.76h0c-.06.23-.11.54-.17.76l-.16.69Z"/><path class="cls-1" d="M57.43,122.24a7.91,7.91,0,0,1,1.24-.08,2.12,2.12,0,0,1,1.3.3,1,1,0,0,1,.38.83,1,1,0,0,1-.66.93v0a1,1,0,0,1,.49.69c.12.39.24.95.32,1.09h-1a4.48,4.48,0,0,1-.27-.88c-.11-.46-.25-.55-.56-.55h-.17V126h-1Zm1,1.61h.27c.38,0,.61-.19.61-.48s-.19-.45-.53-.45a2,2,0,0,0-.35,0Z"/><path class="cls-1" d="M63.21,123.05h-1v-.86h3v.86h-1v3h-1Z"/><path class="cls-1" d="M70.91,122.19v1.42h1.24v-1.42h1V126h-1V124.5H70.91V126h-1v-3.83Z"/><path class="cls-1" d="M79,124.07a1.84,1.84,0,0,1-1.92,2,1.81,1.81,0,0,1-1.85-2,1.87,1.87,0,0,1,1.91-2A1.8,1.8,0,0,1,79,124.07Zm-2.68,0c0,.72.31,1.16.81,1.16s.78-.48.78-1.17-.29-1.16-.79-1.16S76.34,123.4,76.34,124.11Z"/><path class="cls-1" d="M84.34,124.65c0-.43,0-1,0-1.55h0c-.12.51-.28,1.09-.4,1.51L83.52,126h-.81l-.32-1.34c-.1-.41-.22-1-.31-1.51h0c0,.54,0,1.12-.06,1.55L82,126H81l.24-3.83h1.38l.25,1c.11.43.22.94.3,1.41h0c.11-.47.24-1,.35-1.42l.29-1h1.35l.19,3.83h-1Z"/><path class="cls-1" d="M89.94,124.48H88.56v.71h1.55V126H87.54v-3.83H90V123H88.56v.62h1.38Z"/><rect class="cls-3" x="0.13" y="0.13" width="132.31" height="132.31" rx="27.47"/></g></g></svg>