<svg xmlns="http://www.w3.org/2000/svg" viewBox="0 0 439.95 431.08"><defs><style>.cls-1{fill:#fff;}</style></defs><g id="Lager_2" data-name="Lager 2"><g id="Lager_1-2" data-name="Lager 1"><path class="cls-1" d="M387.57,40.76C357.43,12.45,318.64-1.95,278.35.21a12.26,12.26,0,0,0,1.31,24.49c33.55-1.81,65.91,10.25,91.13,33.94,28,26.29,44.28,64.61,44.64,105.12a12.26,12.26,0,0,0,24.52-.23C439.52,116.37,420.42,71.62,387.57,40.76Z"/><path class="cls-1" d="M259,58.6a12.25,12.25,0,0,0-10.53,13.77,12.1,12.1,0,0,0,3.47,7,12.23,12.23,0,0,0,10.3,3.49c21.88-2.91,46.62,6.33,66.18,24.71,21,19.71,32.41,46.48,30.63,71.59a12.26,12.26,0,0,0,24.45,1.74c2.31-32.39-12-66.47-38.29-91.19C320.39,66.37,288.16,54.72,259,58.6Z"/><path class="cls-1" d="M259.24,138.27A34.44,34.44,0,0,1,287,145.82c10.43,8.44,16.77,22.11,17.41,37.49a12.26,12.26,0,1,0,24.5-1c-.93-22.41-10.58-42.64-26.48-55.52a58.63,58.63,0,0,0-47.23-12.68,12.26,12.26,0,0,0,4.09,24.18Z"/><path class="cls-1" d="M336.74,277.82S186.09,126.2,180.16,120.28a14.82,14.82,0,0,0-20.66,0c-1.91,1.92-23.33,23.21-49.77,49.49V146.3A16.54,16.54,0,0,0,93.2,129.78H74A16.54,16.54,0,0,0,57.43,146.3v75.45L2,276.8A6.9,6.9,0,0,0,6.9,288.6l33.92.1V409.78a21.32,21.32,0,0,0,21.3,21.3h65.62V335.47a9,9,0,0,1,9-9H202a9,9,0,0,1,9,9v95.61h65.65a21.33,21.33,0,0,0,21.3-21.3V289.49l33.91.1a6.91,6.91,0,0,0,4.9-11.77Z"/></g></g></svg>