<?xml version="1.0" encoding="utf-8"?>
<!-- Generator: Adobe Illustrator 25.0.0, SVG Export Plug-In . SVG Version: 6.00 Build 0)  -->
<svg version="1.1" id="Layer_1" xmlns="http://www.w3.org/2000/svg" xmlns:xlink="http://www.w3.org/1999/xlink" x="0px" y="0px"
	 width="1001px" height="1047px" viewBox="0 0 1001 1047" style="enable-background:new 0 0 1001 1047;" xml:space="preserve">
<style type="text/css">
	.st0{fill:#212121;}
	.st1{fill:#FFFFFF;}
</style>
<path class="st0" d="M526.5,22.5c0.1,3.3,0.1,6.6,0.1,9.9c1.5,0.8,3.1,1.5,4.6,2.3c2.2-2.1,4.3-4.8,7-6.2c3.3-1,6.2,3.4,8.3,5.3
	c0,1.2,0,2.4,0.1,3.5c-2.1,2.1-4.2,4.3-6.3,6.4c0.8,1.5,1.6,3.1,2.3,4.6c3,0,6.1-0.2,9,0.2c3.2,2.5,2,8.8,0.5,12c-3.2,0-6.3,0-9.5,0
	c-0.8,1.5-1.6,3.1-2.3,4.6c2.1,2.2,4.2,4.3,6.3,6.5c0,1.2,0,2.3,0,3.5c-1.8,1.8-3.5,3.5-5.3,5.2c-1.2,0-2.3,0.1-3.5,0.1
	c-2.2-2-4.3-4.1-6.4-6.2c-1.6,0.8-3.1,1.5-4.6,2.3c0,2.9,0.2,6-0.3,8.9c-1.4,2.3-4.1,2-6.4,2.1c-2.1-0.1-4.1,0-5.3-2.1
	c-0.6-2.9-0.4-6-0.4-8.9c-1.5-0.8-3.1-1.5-4.6-2.3c-2.2,2.1-4.3,4.2-6.4,6.4c-4,0.1-9.7-4.2-8.8-8.5c1.4-2.7,4.1-4.8,6.1-6.9
	c-0.7-1.6-1.5-3.1-2.2-4.7c-2.8,0-5.6,0.1-8.3-0.2c-1.8,0.1-2.3-1.9-2.6-3.3c-0.2-2.7-0.5-6,1.2-8.3c3.1-0.7,6.5-0.4,9.6-0.5
	c0.8-1.5,1.5-3,2.2-4.6c-3-3.2-6.4-5.1-6.4-10c2.2-1.8,5.3-6.3,8.5-5.3c2.7,1.5,4.8,4.1,6.9,6.2c1.5-0.7,3.1-1.5,4.7-2.2
	c0-3.2,0-6.6,0.3-9.8C518.6,20.9,522.5,21.3,526.5,22.5z"/>
<path class="st1" d="M515.5,46.5c3.5-2.1,8.9-1.8,11.7,1.3c3.8,3.5,3.5,10.6-0.6,13.7c-3.6,3.3-9.4,3-12.7-0.5
	C509.6,57.1,510.5,49.6,515.5,46.5z"/>
<path class="st0" d="M607.3,92.7c2.7,3.4,3.8,7.3,5.6,11c1.6,0.5,3.4,0.7,5.1,1.1c-1.4,3.8-2.9,7.8-5.2,11.2c-0.7,1.2-3,1.1-3.5-0.2
	c-2-3.5-3.6-7.2-5.1-11c1.3-0.4,2.6-0.7,3.9-1.1c-1.9-4.6-3.9-8.8-7.7-12.2c-5.9-5.1-14.6-8.1-22.4-6.3c-7.3,1.5-13.8,5.8-17.5,12.2
	c-3.3,5.7-4.9,13.1-3,19.5c1.7,6.8,6,12.8,12.1,16.3c7,4.1,15.8,4.8,23.3,1.6c4-1.7,6.3-4.8,10.9-4.8c-0.3,1.4-0.1,3.2-1.3,4.2
	c-9.4,8-23.4,9.5-34.2,3.3c-11-6-17.3-18.3-15.7-30.7c1.5-11.6,10.1-21.8,21.3-25.3C586,77.8,599.8,82.5,607.3,92.7z"/>
<path class="st0" d="M575.5,100.6c3.6-1.2,6.9,1.4,10,2.9c2.6,1.5,5.8,2.8,7.9,5c0.5,1.6,0.5,3.5-0.1,5.1c-2.3,2.3-5.8,3.6-8.6,5.2
	c-2.3,1.1-5.1,3.1-7.8,2.9c-1.9,0.2-3.1-2.2-3.3-3.8c-0.4-3.9-0.2-7.9-0.2-11.9C573.6,103.9,574,102,575.5,100.6z"/>
<path class="st0" d="M496,137.9c8.1-0.5,15.9,4.8,18.4,12.6c1.5,3.9,0.8,7.6,0.2,11.6c114,82.8,228,165.6,342,248.4
	c2.5,1.7,5.4,4.7,8.4,5.3c2.9-1.3,5.2-3.3,8.3-4.3c7.3-2.5,16,0.8,20.3,7.1c5.3,7.3,4.1,18.3-2.8,24.2c-4.5,4.2-10,5.1-15.9,4.8
	C847.5,531.3,820.3,615.2,793,699c-17.6,53.7-34.8,107.6-52.6,161.3c3.4,2.5,6.6,4.8,8.6,8.6c1.9,3.5,1.8,7.3,1.6,11.1
	c-0.2,4.7-3.2,9.2-6.8,12c-6.7,5.1-16.8,4.9-23.2-0.7c-3.8-3.1-5.1-7.2-6.5-11.7c-143.5-0.1-287.1,0-430.6,0
	c-1.4,3.9-2.4,7.5-5.4,10.5c-5.8,6.3-15.9,7.3-23.1,2.8c-5.7-3.6-9.1-10.2-8.4-17c0.2-5.6,3.3-9.8,7.1-13.6
	c-6.9-21.9-14.1-43.8-21.2-65.6c-29.4-90.4-58.8-180.8-88.2-271.2c-8.3-26-17-51.9-25.2-78c-4.9,0-9.4-0.1-13.6-2.9
	c-7.5-4.6-10.5-14.4-7.2-22.5c3.1-8.2,12.4-13.1,20.9-11.2c3.8,0.9,6.4,3.2,9.8,4.8c3.1-1,5.7-3.6,8.4-5.5
	c111.5-80.9,222.9-161.8,334.4-242.8c2.3-1.7,4.9-3.2,6.9-5.2c0.5-4.4-0.6-8.3,1.1-12.6C482.2,142.9,488.7,138.2,496,137.9z"/>
<path class="st1" d="M481.1,166.3c2.9,2.7,5.2,5.7,9.1,7.2c4.6,1.6,10.2,1.6,14.6-0.6c3.3-1.6,5.5-4.1,7.9-6.6
	c45.5,33.2,91.2,66.2,136.7,99.4c70.1,50.9,140.3,101.9,210.4,152.7c0.6,0.7,2.3,1.4,1.8,2.5c-1.3,5.5-2.5,10.4,0,15.8
	c1.8,4.4,5.2,6.9,9,9.5c-44.7,137.6-89.5,275.2-134.2,412.8c-2.5,0-4.9,0-7.4,0c2.6,0.2,5.1,0.3,7.6,0.5c-5,0-9.5-0.3-13.8,2.6
	c-5.2,3-7.1,7.9-8.7,13.4c-139.7,0-279.4,0-419.1,0c-3.7,0-7.5,0.2-11.2-0.2c-2.3-4.6-3.2-9.1-7.7-12.3c-5.6-4.6-11.6-3.7-18.4-3.1
	c-4.9-13.8-9-27.9-13.7-41.8c-36.8-113.4-73.7-226.8-110.6-340.2c-3.2-10.6-7.1-21.1-10.2-31.8c3.9-2.7,7.3-5.4,9.1-9.9
	c2.3-5.4,1.3-10.8-0.7-16.2C244.1,338.3,356.5,256.6,469,175C473,172.1,476.9,169,481.1,166.3z"/>
<path class="st0" d="M505,322.2c2.7,1.3,5,3.7,7.1,5.8c15.7,16,31.6,31.8,47.4,47.6c14.2,14.8,29.2,28.9,43.3,43.7
	c12.4,12.6,25.1,24.9,37.4,37.6c14.2,14.1,28.3,28.3,42.4,42.6c2.6,2.9,7.4,6.2,7.1,10.5c0.3,4.3-3.4,8.1-7.7,8
	c-3.5,0.2-5.6-1.9-7.9-4.1c-8.9-9.2-18.1-17.9-26.8-27.2c-22.6-22.4-44.8-45.1-67.4-67.6c-15.3-15.7-31.1-30.9-46.3-46.7
	c-9.2-9.1-18.3-18.3-27.5-27.5c-2.4-2.5-5.5-4.2-9.1-4.2c-3.9,0.2-6.7,2.3-9.4,4.9c-40.9,40.7-81.9,81.5-122.8,122.2
	c-16.3,15.3-31.7,31.7-47.9,47.2c-2.2,2.3-7.1,2.3-9.5,0.6c-4.3-2.7-4.4-9.6-0.7-12.8c6.4-6.6,13-13,19.7-19.4
	c21.8-21.9,43.8-43.5,65.6-65.4c15.7-15.2,30.9-31.1,46.8-46.2c15.6-15.8,31.4-31.2,47.2-46.9C490.9,320.1,498.9,319.2,505,322.2z"
	/>
<path class="st0" d="M392,325.3c6.4,0.1,12.7-0.1,19,0.1c6,0,11.9,3.5,15.1,8.6c2.7,4.2,3.2,9.2,3.3,14.1c0,6.4-0.1,12.8,0,19.2
	c-5.2,5.3-10.8,10.2-16.1,15.5c-0.1-10.9-0.1-21.8,0-32.7c0-2.9-0.4-5.7-0.8-8.5c-8.9-0.2-17.9-0.3-26.8,0.1
	c-0.5,22.9-0.1,45.7-0.2,68.6c-5.3,5.7-10.7,11.1-16,16.8c-0.2-27,0-54-0.1-81c0-4,0.3-7.9,2.5-11.4c2.2-3.4,5.3-6.3,8.9-7.9
	C384.2,325.1,388.3,325.3,392,325.3z"/>
<path class="st0" d="M946.6,326.2c2.2,3,4,6.2,6.1,9.1c5.9,8.2,12.5,15.6,17.2,24.7c1.8,3.6,3.3,7.8,3.4,11.9
	c-0.1,7.7-3.6,15-9.4,20c-6.8,6-16.5,7.8-25.1,5.3c-9-2.5-16.3-10.4-18.2-19.5c-0.7-4.8-0.8-10.3,1.4-14.8
	c4.6-10.6,13.9-20.1,20.3-29.8C943.8,330.9,945.1,328.5,946.6,326.2z"/>
<path class="st0" d="M57.9,333.4c1.7,2.7,3,5.6,4,8.7c5.4,2.4,10.2,4.7,12.6,10.4c2.8,7.2,1,17,2.1,24.4c1,3.4,4.5,6.1,6.8,8.7
	c-11.5,0.2-22.9,0-34.4,0.1c-8-0.1-16,0.2-24-0.2c2.4-2.7,5.4-5.3,6.5-8.8c1.3-4.3,0.2-9,0.2-13.6c0-5.3,0.9-10.5,4.6-14.7
	c2.8-3.2,6.3-4.6,10.1-6.2c1-2.5,1.5-6.3,3.7-8.1C52.2,333,55.4,333.5,57.9,333.4z"/>
<path class="st1" d="M967.1,365.7c1,8.1-1.6,16.2-7.8,21.6c-3.3,2.9-7.1,4.2-11.1,5.5c5.5-3.5,10.5-7.2,13.9-12.9
	C964.9,375.5,965.9,370.7,967.1,365.7z"/>
<path class="st0" d="M61.3,390.3c-0.6,1.6-1.2,3.4-2.2,4.8c-1.6,2-4.6,1.8-6.9,1.5c-2.7-0.5-4-4.1-5.3-6.1
	C51.7,390.1,56.5,390.1,61.3,390.3z"/>
<path class="st0" d="M627.5,482.4c5.4,5.7,10.6,11.6,16,17.4c0,51.4,0,102.8,0,154.2c0,8.7-4.4,17.1-11.9,21.5
	c-4.8,2.9-10,3.7-15.5,3.8c-17.3,0-34.7,0-52,0c-3-0.1-6.6-0.2-9-2.3c-3.6-2.9-3.7-9.1-0.1-12c2.1-1.9,4.4-1.6,7.1-1.7
	c17,0.1,34,0,51,0.1c3.2,0,6.9,0,9.8-1.3c2.9-1.6,4.5-4.7,4.5-8C627.5,596.9,627.2,539.5,627.5,482.4z"/>
<path class="st0" d="M366.3,482.6c0.2,53.5,0,107,0.1,160.4c0.1,4.6-0.4,9.5,0.3,14c1.4,4.7,5.7,6.1,10.2,6.2
	c19,0.1,38.1-0.1,57.1,0c5.5-0.2,9,5.9,6.8,10.8c-1.9,4-5.7,5.2-9.9,5.2c-17.3,0-34.7-0.1-52,0c-3.5,0-7-0.2-10.5-1.1
	c-8.2-2.2-15.2-9-17.3-17.2c-1.3-4.7-0.8-10.1-0.9-15c0-47.7,0-95.4,0-143c0-2,0.1-3.5,1.6-5C356.6,492.7,361.4,487.5,366.3,482.6z"
	/>
<path class="st0" d="M583.6,568.4c3,2.9,3.7,6.6,2.3,10.5c-1.9,5.1-8.7,7.4-13.3,4.5c-3.1-2.1-5.7-5-8.6-7.4
	c-23.6-20-55.5-30.2-86.2-25.2c-19.2,3.1-37.3,12-50.9,26.1c-2.1,2.1-4.3,4.8-7,5.9c-4.7,2.1-11-1-12.2-5.9
	c-0.5-2.8-0.6-5.8,1.2-8.2c2-2.8,4.7-5.2,7.2-7.7c17.4-16.5,40.2-27,64.1-29.4C517.8,527,556.8,541.7,583.6,568.4z"/>
<path class="st0" d="M528,584.9c12.9,4.4,24.9,12,34.1,22.1c2.5,2.8,4.1,6.1,2.8,9.9c-1.6,5.6-8.2,8.5-13.3,5.6
	c-3.8-2.4-6.4-6.3-10-9c-14.4-11.7-34.2-16.5-52.5-14.8c-15.6,1.6-31.8,8-42.1,20.2c-2.3,2.5-4.1,5-7.8,5.3
	c-5.1,0.7-9.8-3.1-10.5-8.2c-0.5-3.8,1.6-6.8,4-9.5c9-10.4,21.2-18.1,34.2-22.2C486.5,577.7,508.3,578,528,584.9z"/>
<path class="st0" d="M494,622.2c12.4-0.5,24.7,3.9,34.6,11.1c2.6,1.9,5.4,4.1,7.3,6.8c2.4,3.4,1.8,8-0.9,11c-3,3.4-8.2,4.4-12,1.8
	c-4.2-2.9-7.7-6.4-12.5-8.5c-6.9-3.5-14.6-3.9-22.2-2.6c-5,1.2-9.5,3.8-12.9,7.7c-2.4,2.5-4.7,6.1-8.5,6.2
	c-5.4,0.7-10.3-3.2-10.6-8.7c-0.4-4.4,3.4-8.5,6.2-11.5C470.8,627.2,482.3,622.4,494,622.2z"/>
<path class="st0" d="M174,871.3c16.2-0.9,30.9,12.6,31.7,28.7c0.8,8.9-2.5,17.6-8.7,24c-4.8,5.1-11,7.8-17.8,9.3
	c0,8.4,0,16.9,0,25.3c5.4,0,10.8,0,16.2,0c0.4,1.7,0.8,3.3,1.2,5c-4.9,0.7-9.7,0.7-14.6,0.6c-9.5,0-19,0-28.6,0
	c0-1.9-0.1-3.7-0.1-5.6c5.6,0,11.2,0,16.7,0c-0.1-8.5,0.3-17.1-0.3-25.5c-10.4-1.6-19.6-8.4-23.8-18.1c-2.5-5.4-2.9-11.2-2.4-17
	C145.5,883.2,158.9,871,174,871.3z"/>
<path class="st1" d="M169.6,881.9c3.1-0.6,6.7-0.6,9.8,0c9.6,2.1,16.8,11.3,16.4,21.1c0.3,11.3-10.5,21.5-21.8,20.7
	c-10.9,0.1-20.8-9.8-20.6-20.8C152.9,893.1,160.1,884.2,169.6,881.9z"/>
<path class="st0" d="M176.4,888c0,0.9-0.1,1.7-0.1,2.6c-1.2,0-2.4,0.1-3.5,0.1C173.8,888.2,173.8,888.4,176.4,888z"/>
<path class="st0" d="M171.3,897.2c4.2-2.5,9.9,0.7,9.4,5.7c0,4.9-5.6,7.1-9.5,4.9C167.4,905.5,167.4,899.5,171.3,897.2z"/>
<path class="st0" d="M692,922.9c11.9,3.8,19,18.9,14.1,30.4c-2.2,5.7-6.1,9.3-9.8,13.9c-2.2,2.5-2.4,5.4-3.1,8.5
	c-5.1,0.8-10.1,0.8-15.2,0.6c-1.2-0.2-3.3,0.1-3.5-1.6c-1-2.6-1.2-5-3-7.3c-3.7-4.7-7.7-8.2-9.9-14c-3.6-9.4-0.6-20.3,7.1-26.7
	C675,921.4,684.2,920.3,692,922.9z"/>
<path class="st0" d="M263,941.2c4,3.6,7.7,7.5,11.5,11.3c1.5,1.7,3.5,3,3,5.6c-2,3-5,5.4-7.5,8c-8,8-16.1,16-24,24
	c-1.7,1.5-3,3.4-5.6,2.3c-2.8-1.6-5-4.4-7.3-6.6c-2.2-2.3-4.9-4.4-6.5-7.1c-1.1-2.6,0.7-4,2.3-5.8c9.7-9.6,19.4-19.3,29-29
	C259.4,942.4,261,941.8,263,941.2z"/>
<path class="st1" d="M263.2,947.6c2.5,1.4,1.9,5.9-1.2,5.8c-2.6,0.3-2.6-3.1-2.8-4.9C260.4,948.1,261.9,947.5,263.2,947.6z"/>
<path class="st1" d="M257.4,954.6c1.1,0.8,1.4,1.9,1.1,3.5c-1.3,1.7-3.1,1.3-5,1.8c-0.1-1.9-0.2-3.8-0.2-5.7
	C254.6,954.3,256,954.4,257.4,954.6z"/>
<path class="st1" d="M271.5,957c0.6,2.5-3.3,2.6-4.9,3c-0.3-1-0.7-2.1-1-3.1c0.4-0.9,0.7-1.7,1.1-2.6
	C268.9,954.4,271.6,954,271.5,957z"/>
<path class="st1" d="M249.9,959.7c1.1,0.3,2.1,0.7,3.2,1.1c-0.6,1.4-0.9,5.4-3.1,4.8c-2.9,0.4-2.6-2.8-2.7-4.8
	C248.1,960.4,249,960,249.9,959.7z"/>
<path class="st0" d="M788.3,960.6c0.3,2.3,0.7,4.5,1,6.8c4.1,0,8.2,0,12.2,0.1c0,1.7,0.1,3.4,0.1,5.1c-4.3,0.5-8.5,0.6-12.8,0.6
	c0.3,3.5,0.5,7,0.5,10.5c4.1-0.1,8.3,0,12.4,0.6c-0.1,1.7-0.2,3.4-0.3,5.1c-4,0.2-8.1,0.2-12.1,0.2c-0.3,2.2-0.7,4.5-1,6.7
	c-6.6-0.1-14.4,1.3-20.1-2.5c-4-2.4-5.9-6-8-10c-3.4-0.2-5.6-0.7-8.6-2.4c-2.4,1.9-5,3.3-5.4,6.7c-0.5,3.2,1.6,5.8,3.4,8.3
	c2.7,3.6,5.8,6.9,5.9,11.6c0.3,5.1-2.4,9.2-5.9,12.7c-2.9,2.7-5.7,5.6-9,7.9c-1.9-0.1-3.7-2.2-4.8-3.6c3.9-5.4,12.3-8.7,13.7-16
	c-0.1-4-4.4-7.8-6.5-11.1c-3.1-4.1-4.6-9.2-2.1-14c2.9-5.9,8-7.6,13.3-10.7c1.7-1.1,4-0.8,6-1c2.4-3.7,4.4-7.3,8.4-9.6
	C774.3,959.4,782.1,960.5,788.3,960.6z"/>
<path class="st1" d="M263.2,960.3c1.5,1.3,1.6,3.1,1.8,4.9c-1,0.4-2,0.9-3,1.3c-0.9-0.5-1.8-1-2.6-1.5c0.1-1.2,0.1-2.4,0.2-3.5
	C260.7,961.1,261.9,960.7,263.2,960.3z"/>
<path class="st1" d="M243.9,965.5c0.9,0.5,1.9,0.9,2.8,1.4c-0.3,1.4-0.2,3.5-1.5,4.3c-1.2,0.2-2.4,0.3-3.7,0.5
	c-0.1-1.6-0.2-3.2-0.3-4.8C242.2,966.4,243,966,243.9,965.5z"/>
<path class="st1" d="M257.7,966.4c0.8,0.9,1.7,1.8,2.4,2.8c-1.9,1.6-2.7,3.6-5.6,2.3C251.8,968.9,254.3,965.8,257.7,966.4z"/>
<path class="st1" d="M249.5,972.4c1.6-0.5,2.9,1.3,4.3,2c-0.5,1.1-1,2.2-1.5,3.3c-1.6-0.1-3.3-0.2-4.9-0.3
	C247.7,975.5,247.3,973.4,249.5,972.4z"/>
<path class="st0" d="M676.6,977.7c4.8,0,9.6,0.1,14.3,0.8c-0.1,0.7-0.2,1.4-0.3,2c-4.8,0-9.6,0-14.4,0
	C676.3,979.5,676.4,978.6,676.6,977.7z"/>
<path class="st0" d="M678.1,983.6c3.7-0.6,7.6-0.2,11.4-0.2c0,0.7,0,1.4,0,2.1c-4.2,0.1-8.5,0.1-12.7-0.1
	C677.2,984.8,677.6,984.2,678.1,983.6z"/>
<path class="st0" d="M687.4,988.4c0,0.7-0.1,1.4-0.1,2c-2.6,0-5.3,0-7.9-0.1C680.8,987.2,684.6,988.7,687.4,988.4z"/>
</svg>
