<svg id="Layer_1" data-name="Layer 1" xmlns="http://www.w3.org/2000/svg" xmlns:xlink="http://www.w3.org/1999/xlink" viewBox="0 0 133.15 88.83"><defs><style>.cls-1{fill:#bdbcbc;}.cls-2{fill:#1d1d1b;}.cls-3,.cls-5{fill:#fff;}.cls-4{fill:#b0adab;}.cls-5{stroke:#fff;stroke-miterlimit:10;stroke-width:0.08px;}.cls-6{fill:#70c9f3;}.cls-7{fill:url(#linear-gradient);}.cls-8{fill:url(#linear-gradient-2);}.cls-9{fill:url(#linear-gradient-3);}</style><linearGradient id="linear-gradient" x1="924.09" y1="494.5" x2="900.25" y2="494.5" gradientTransform="matrix(1, 0, 0, -1, 0, 1082)" gradientUnits="userSpaceOnUse"><stop offset="0" stop-color="#ffe000"/><stop offset="0.42" stop-color="#fabc00"/><stop offset="0.78" stop-color="#f6a400"/><stop offset="1" stop-color="#f59b00"/></linearGradient><linearGradient id="linear-gradient-2" x1="917.9" y1="492.24" x2="895.47" y2="469.81" gradientTransform="matrix(1, 0, 0, -1, 0, 1082)" gradientUnits="userSpaceOnUse"><stop offset="0" stop-color="#e7383d"/><stop offset="1" stop-color="#c81166"/></linearGradient><linearGradient id="linear-gradient-3" x1="895.38" y1="519.29" x2="913.69" y2="500.98" gradientTransform="matrix(1, 0, 0, -1, 0, 1082)" gradientUnits="userSpaceOnUse"><stop offset="0" stop-color="#296"/><stop offset="0.15" stop-color="#33a064"/><stop offset="0.52" stop-color="#5baf5f"/><stop offset="0.82" stop-color="#73b95c"/><stop offset="1" stop-color="#7cbc5b"/></linearGradient></defs><g id="Lager_2" data-name="Lager 2"><g id="Lager_1-2" data-name="Lager 1-2"><path class="cls-1" d="M1015.62,518.4H902.18a12,12,0,0,0-2.23.21,7.19,7.19,0,0,0-2.1.69,6.93,6.93,0,0,0-1.79,1.31,7,7,0,0,0-1.3,1.79,7.22,7.22,0,0,0-.7,2.1,16.36,16.36,0,0,0-.21,2.22v27.56a16.63,16.63,0,0,0,.19,2.23,7.25,7.25,0,0,0,.7,2.09,6.91,6.91,0,0,0,1.32,1.8,7.47,7.47,0,0,0,1.79,1.32,8.37,8.37,0,0,0,2.1.7,15.1,15.1,0,0,0,2.22.18h115.68a14.63,14.63,0,0,0,2.2-.2,7.72,7.72,0,0,0,2.11-.71,7,7,0,0,0,1.8-1.29,7.25,7.25,0,0,0,1.3-1.8,7.66,7.66,0,0,0,.69-2.09,15.15,15.15,0,0,0,.2-2.23V526.74a14.89,14.89,0,0,0-.2-2.22,7.44,7.44,0,0,0-.7-2.12,7.09,7.09,0,0,0-5.2-3.79,13.44,13.44,0,0,0-2.2-.21h-2.23Z" transform="translate(-893.43 -518.4)"/><path class="cls-2" d="M903.19,561.65h-1a12.06,12.06,0,0,1-2.07-.18,6.36,6.36,0,0,1-1.83-.61A6.17,6.17,0,0,1,895,556.4a15,15,0,0,1-.17-2.12V526.74a17.69,17.69,0,0,1,.18-2.07,6.43,6.43,0,0,1,.61-1.84,6.26,6.26,0,0,1,1.1-1.54,6.55,6.55,0,0,1,1.55-1.13,6.66,6.66,0,0,1,1.83-.6,13.12,13.12,0,0,1,2.07-.16h115.66a14.08,14.08,0,0,1,2.06.18,6.29,6.29,0,0,1,1.85.61,5.86,5.86,0,0,1,1.53,1.12,5.6,5.6,0,0,1,1.14,1.55,6.13,6.13,0,0,1,.59,1.83,12,12,0,0,1,.19,2.08v27.49a12.71,12.71,0,0,1-.19,2,6,6,0,0,1-.6,1.85,5.44,5.44,0,0,1-1.12,1.53,5.77,5.77,0,0,1-1.55,1.13,6.32,6.32,0,0,1-1.84.61,11.89,11.89,0,0,1-2.07.18H903.19Z" transform="translate(-893.43 -518.4)"/><path class="cls-3" d="M921.24,540.85a5.51,5.51,0,0,1,2.6-4.6,5.55,5.55,0,0,0-4.41-2.38c-1.86-.2-3.66,1.11-4.6,1.11s-2.43-1.09-4-1.06a5.88,5.88,0,0,0-5,3c-2.14,3.7-.54,9.14,1.51,12.13,1,1.47,2.22,3.1,3.79,3s2.1-1,4-1,2.37,1,4,.94,2.69-1.48,3.67-3a11.72,11.72,0,0,0,1.68-3.42A5.29,5.29,0,0,1,921.24,540.85Z" transform="translate(-893.43 -518.4)"/><path class="cls-3" d="M918.22,531.9a5.38,5.38,0,0,0,1.23-3.86,5.46,5.46,0,0,0-3.55,1.84,5.11,5.11,0,0,0-1.26,3.71A4.55,4.55,0,0,0,918.22,531.9Z" transform="translate(-893.43 -518.4)"/><path class="cls-3" d="M940.62,548.4h-5.23l-1.26,3.7h-2.22l4.94-13.7h2.3l5,13.72h-2.3Zm-4.69-1.72h4.15l-2-6h0Z" transform="translate(-893.43 -518.4)"/><path class="cls-3" d="M954.85,547.1c0,3.12-1.67,5.12-4.18,5.12a3.44,3.44,0,0,1-3.15-1.75h0v5h-2V542.1h2v1.66h0a3.62,3.62,0,0,1,3.19-1.77C953.16,542,954.85,544,954.85,547.1Zm-2.11,0c0-2-1-3.36-2.65-3.36s-2.63,1.37-2.63,3.36,1.06,3.37,2.63,3.37,2.64-1.31,2.64-3.37Z" transform="translate(-893.43 -518.4)"/><path class="cls-3" d="M965.85,547.1c0,3.12-1.67,5.12-4.18,5.12a3.44,3.44,0,0,1-3.15-1.75h0v5h-2V542.1h2v1.66h0a3.58,3.58,0,0,1,3.19-1.77C964.18,542,965.85,544,965.85,547.1Zm-2.12,0c0-2-1-3.36-2.64-3.36s-2.63,1.37-2.63,3.36,1.06,3.37,2.63,3.37,2.65-1.31,2.65-3.37Z" transform="translate(-893.43 -518.4)"/><path class="cls-3" d="M973.14,548.28c.15,1.37,1.47,2.26,3.28,2.26s3-.9,3-2.12-.77-1.7-2.57-2.14l-1.78-.43c-2.51-.61-3.69-1.79-3.69-3.7,0-2.37,2.06-4,5-4s4.89,1.63,5,4h-2.11c-.12-1.37-1.25-2.2-2.91-2.2s-2.79.83-2.79,2c0,1,.73,1.54,2.5,2l1.51.37c2.82.67,4,1.8,4,3.81,0,2.57-2,4.18-5.3,4.18-3,0-5.1-1.57-5.24-4.06Z" transform="translate(-893.43 -518.4)"/><path class="cls-3" d="M986,539.74v2.36h1.92v1.63H986v5.51c0,.86.38,1.26,1.22,1.26a3.86,3.86,0,0,0,.68,0v1.62a4.88,4.88,0,0,1-1.15.1c-2,0-2.81-.77-2.81-2.71v-5.77h-1.46V542.1h1.46v-2.36Z" transform="translate(-893.43 -518.4)"/><path class="cls-3" d="M989,547.1c0-3.15,1.85-5.13,4.75-5.13s4.74,2,4.74,5.13-1.83,5.14-4.74,5.14S989,550.27,989,547.1Zm7.41,0c0-2.16-1-3.43-2.66-3.43s-2.66,1.28-2.66,3.43,1,3.44,2.66,3.44S996.41,549.27,996.42,547.1Z" transform="translate(-893.43 -518.4)"/><path class="cls-3" d="M1000.2,542.1h2v1.71h0a2.37,2.37,0,0,1,2.4-1.81,2.42,2.42,0,0,1,.71.08V544a2.43,2.43,0,0,0-.93-.12,2.07,2.07,0,0,0-2.15,2c0,.11,0,.21,0,.31v5.94h-2Z" transform="translate(-893.43 -518.4)"/><path class="cls-3" d="M1014.79,549.18c-.26,1.82-2,3.06-4.3,3.06-2.92,0-4.73-2-4.73-5.08s1.82-5.18,4.63-5.18,4.52,1.91,4.52,4.94v.7h-7.06v.13a2.62,2.62,0,0,0,2.37,2.83h.32a2.25,2.25,0,0,0,2.31-1.4Zm-6.94-3h5a2.4,2.4,0,0,0-2.27-2.54h-.19a2.53,2.53,0,0,0-2.54,2.51v0Z" transform="translate(-893.43 -518.4)"/><path class="cls-3" d="M935.67,528.05c2,0,3.11,1.21,3.11,3.27s-1.14,3.33-3.11,3.33h-2.38v-6.6Zm-1.36,5.67h1.25a2.08,2.08,0,0,0,2.19-2,2.17,2.17,0,0,0,0-.36,2.06,2.06,0,0,0-1.75-2.35,2,2,0,0,0-.42,0h-1.25Z" transform="translate(-893.43 -518.4)"/><path class="cls-3" d="M939.93,532.16a2.37,2.37,0,0,1,2.14-2.57,2.34,2.34,0,0,1,2.56,2.13,1.62,1.62,0,0,1,0,.44,2.36,2.36,0,0,1-4.7.43A3.08,3.08,0,0,1,939.93,532.16Zm3.69,0c0-1.08-.49-1.71-1.34-1.71s-1.33.63-1.33,1.71.48,1.71,1.33,1.71S943.62,533.24,943.62,532.16Z" transform="translate(-893.43 -518.4)"/><path class="cls-3" d="M950.85,534.65h-1l-1-3.67h-.1l-1,3.67h-1l-1.37-5h1l.89,3.8h.07l1-3.8h.94l1,3.8h.08l.89-3.8h1Z" transform="translate(-893.43 -518.4)"/><path class="cls-3" d="M953.39,529.67h1v.79h.07a1.47,1.47,0,0,1,1.49-.88,1.6,1.6,0,0,1,1.69,1.53,1.46,1.46,0,0,1,0,.29v3.21h-1v-3c0-.8-.35-1.19-1.08-1.19a1.15,1.15,0,0,0-1.18,1.1v3.07h-1Z" transform="translate(-893.43 -518.4)"/><path class="cls-3" d="M959.19,527.73h1v6.92h-1Z" transform="translate(-893.43 -518.4)"/><path class="cls-3" d="M961.54,532.16a2.37,2.37,0,1,1,4.7-.54,4.86,4.86,0,0,1,0,.54,2.36,2.36,0,0,1-4.7.53A4.68,4.68,0,0,1,961.54,532.16Zm3.68,0c0-1.08-.48-1.71-1.33-1.71s-1.33.63-1.33,1.71.48,1.71,1.33,1.71S965.22,533.24,965.22,532.16Z" transform="translate(-893.43 -518.4)"/><path class="cls-3" d="M967.27,533.24c0-.89.66-1.41,1.85-1.48l1.35-.08v-.43c0-.53-.35-.82-1-.82s-.93.2-1,.55h-1c.1-.86.9-1.4,2-1.4a1.78,1.78,0,0,1,2,1.67v3.4h-1V534h-.08a1.68,1.68,0,0,1-1.49.78,1.5,1.5,0,0,1-1.66-1.31A1.1,1.1,0,0,1,967.27,533.24Zm3.2-.42v-.42l-1.22.08c-.68,0-1,.28-1,.72s.39.71.93.71a1.19,1.19,0,0,0,1.29-1.07Z" transform="translate(-893.43 -518.4)"/><path class="cls-3" d="M972.74,532.16c0-1.57.81-2.57,2.06-2.57a1.6,1.6,0,0,1,1.53.87h.07v-2.73h1v6.92h-1v-.79h-.07a1.73,1.73,0,0,1-1.57.87C973.54,534.73,972.74,533.74,972.74,532.16Zm1,0c0,1.06.5,1.69,1.33,1.69s1.34-.64,1.34-1.69-.52-1.69-1.34-1.69-1.32.64-1.32,1.69Z" transform="translate(-893.43 -518.4)"/><path class="cls-3" d="M981.45,532.16a2.37,2.37,0,0,1,2.14-2.57,2.34,2.34,0,0,1,2.56,2.13,1.62,1.62,0,0,1,0,.44,2.36,2.36,0,0,1-4.7.43A3.08,3.08,0,0,1,981.45,532.16Zm3.69,0c0-1.08-.49-1.71-1.33-1.71s-1.34.63-1.34,1.71.49,1.71,1.34,1.71S985.14,533.24,985.14,532.16Z" transform="translate(-893.43 -518.4)"/><path class="cls-3" d="M987.47,529.67h.95v.79h.07a1.48,1.48,0,0,1,1.48-.88,1.6,1.6,0,0,1,1.73,1.48,1.3,1.3,0,0,1,0,.34v3.21h-1v-3c0-.8-.35-1.19-1.07-1.19a1.15,1.15,0,0,0-1.19,1.09v3.08h-1Z" transform="translate(-893.43 -518.4)"/><path class="cls-3" d="M997.25,528.4v1.26h1.07v.83h-1.07v2.56c0,.52.21.75.7.75h.37v.81a3.07,3.07,0,0,1-.53,0c-1.08,0-1.53-.39-1.53-1.35v-2.79h-.79v-.83h.79V528.4Z" transform="translate(-893.43 -518.4)"/><path class="cls-3" d="M999.67,527.73h1v2.74h.08a1.55,1.55,0,0,1,1.52-.9,1.64,1.64,0,0,1,1.69,1.59,1,1,0,0,1,0,.24v3.2h-1v-3c0-.8-.37-1.2-1.07-1.2a1.18,1.18,0,0,0-1.25,1.07v3.11h-1Z" transform="translate(-893.43 -518.4)"/><path class="cls-3" d="M1009.68,533.31a2,2,0,0,1-2.16,1.44,2.27,2.27,0,0,1-2.31-2.22,2,2,0,0,1,0-.35,2.32,2.32,0,0,1,2-2.59,1.61,1.61,0,0,1,.31,0c1.38,0,2.22.94,2.22,2.51v.31h-3.52v.05a1.32,1.32,0,0,0,1.21,1.42h.13a1.2,1.2,0,0,0,1.18-.6Zm-3.46-1.61h2.52a1.19,1.19,0,0,0-1.09-1.3h-.14a1.28,1.28,0,0,0-1.29,1.26Z" transform="translate(-893.43 -518.4)"/></g></g><g id="Lager_2-2" data-name="Lager 2"><g id="Lager_1-2-2" data-name="Lager 1-2"><rect class="cls-2" y="49.38" width="133.15" height="39.45" rx="4.93"/><path class="cls-4" d="M1021.65,568.56a4.15,4.15,0,0,1,4.14,4.14v29.6a4.14,4.14,0,0,1-4.14,4.13H898.36a4.13,4.13,0,0,1-4.14-4.13V572.7a4.15,4.15,0,0,1,4.14-4.14h123.29m0-.79H898.36a5,5,0,0,0-4.93,4.93v29.6a5,5,0,0,0,4.93,4.93h123.29a5,5,0,0,0,4.92-4.93V572.7A5,5,0,0,0,1021.65,567.77Z" transform="translate(-893.43 -518.4)"/><path class="cls-5" d="M940.2,577.88a2.7,2.7,0,0,1-.74,2,2.86,2.86,0,0,1-2.17.86,3,3,0,0,1-3.08-2.92,1,1,0,0,1,0-.17,3.07,3.07,0,0,1,3-3.12,3.21,3.21,0,0,1,1.26.24,2.73,2.73,0,0,1,.92.66l-.52.52a2,2,0,0,0-1.62-.69,2.29,2.29,0,0,0-2.31,2.27.19.19,0,0,0,0,.08,2.28,2.28,0,0,0,2.2,2.37h.1a2.24,2.24,0,0,0,1.65-.66,1.88,1.88,0,0,0,.5-1.2h-2.15v-.69h2.87A3.42,3.42,0,0,1,940.2,577.88Z" transform="translate(-893.43 -518.4)"/><path class="cls-5" d="M944.75,575.4h-2.7v1.88h2.43V578h-2.43v1.89h2.7v.72h-3.46v-5.93h3.46Z" transform="translate(-893.43 -518.4)"/><path class="cls-5" d="M948,580.59h-.76V575.4h-1.65v-.73h4.07v.73H948Z" transform="translate(-893.43 -518.4)"/><path class="cls-5" d="M952.55,580.59v-5.92h.76v5.92Z" transform="translate(-893.43 -518.4)"/><path class="cls-5" d="M956.68,580.59h-.76V575.4h-1.65v-.73h4.06v.73h-1.65Z" transform="translate(-893.43 -518.4)"/><path class="cls-5" d="M966,579.84a3.12,3.12,0,0,1-4.35,0,3.06,3.06,0,0,1-.87-2.2,3,3,0,0,1,.87-2.19,3.07,3.07,0,0,1,4.34,0,3,3,0,0,1,.87,2.19A3,3,0,0,1,966,579.84Zm-3.78-.5a2.27,2.27,0,0,0,3.21,0h0a2.35,2.35,0,0,0,.66-1.7,2.38,2.38,0,0,0-.7-1.71,2.29,2.29,0,0,0-3.22,0,2.34,2.34,0,0,0-.65,1.7A2.29,2.29,0,0,0,962.25,579.34Z" transform="translate(-893.43 -518.4)"/><path class="cls-5" d="M968,580.59v-5.92h.93l2.87,4.61h0v-4.61h.76v5.92h-.79l-3-4.82h0v4.83Z" transform="translate(-893.43 -518.4)"/><path class="cls-3" d="M960.62,589.23a4.2,4.2,0,1,0,4.21,4.2,4.14,4.14,0,0,0-4.07-4.21Zm0,6.74a2.55,2.55,0,1,1,2.37-2.73c0,.06,0,.12,0,.19a2.42,2.42,0,0,1-2.3,2.53Zm-9.19-6.74a3.86,3.86,0,1,0,.13,0Zm0,6.74a2.55,2.55,0,1,1,2.36-2.73c0,.06,0,.12,0,.19a2.43,2.43,0,0,1-2.32,2.53Zm-10.91-5.46v1.79h4.26a3.81,3.81,0,0,1-1,2.23,4.33,4.33,0,0,1-3.29,1.3,4.74,4.74,0,0,1,0-9.47,4.51,4.51,0,0,1,3.2,1.29l1.26-1.26a6.16,6.16,0,0,0-4.47-1.8,6.52,6.52,0,1,0-1,13,8.68,8.68,0,0,0,1,0,5.76,5.76,0,0,0,6.09-5.4q0-.3,0-.6a5.1,5.1,0,0,0-.1-1.11Zm44.69,1.38a3.93,3.93,0,0,0-3.59-2.67,4,4,0,0,0-4,4,1.27,1.27,0,0,0,0,.2,4.09,4.09,0,0,0,4,4.19h.16a4.17,4.17,0,0,0,3.54-1.84l-1.43-1a2.39,2.39,0,0,1-2.07,1.16,2.12,2.12,0,0,1-2-1.27l5.61-2.28Zm-5.72,1.4a2.28,2.28,0,0,1,2.13-2.43h.06a1.66,1.66,0,0,1,1.56.88Zm-4.56,4.07h1.83V585h-1.83Zm-3-7.2h-.06a3,3,0,0,0-2.21-.94,4.2,4.2,0,0,0,0,8.39,2.84,2.84,0,0,0,2.21-1h.06v.6c0,1.62-.86,2.47-2.24,2.47a2.27,2.27,0,0,1-2.11-1.5l-1.61.67a4,4,0,0,0,3.72,2.49c2.16,0,4-1.28,4-4.37v-7.54h-1.78Zm-2.11,5.8a2.4,2.4,0,0,1-2.4-2.4.49.49,0,0,1,0-.12,2.42,2.42,0,0,1,2.27-2.55h.06a2.36,2.36,0,0,1,2.25,2.48.15.15,0,0,1,0,.07,2.33,2.33,0,0,1-2.14,2.52h0Zm24-10.93h-4.39v12.33h1.83v-4.67h2.57a3.84,3.84,0,1,0,.56-7.66h-.57Zm0,5.94h-2.56v-4.2h2.63a2.11,2.11,0,0,1,0,4.22h0Zm11.37-1.77a3.46,3.46,0,0,0-3.28,1.89l1.64.68a1.74,1.74,0,0,1,1.68-.9,1.76,1.76,0,0,1,1.92,1.58h0v.13a4.2,4.2,0,0,0-1.92-.48c-1.76,0-3.55,1-3.55,2.78a2.83,2.83,0,0,0,2.95,2.72h.11a2.59,2.59,0,0,0,2.35-1.2h0v1h1.78v-4.73c.08-2.19-1.56-3.41-3.67-3.41ZM1005,596c-.6,0-1.44-.3-1.44-1.05,0-.95,1-1.31,2-1.31a3.42,3.42,0,0,1,1.68.41,2.25,2.25,0,0,1-2.17,2Zm10.44-6.49-2.11,5.35h-.06l-2.19-5.35h-2l3.38,7.47-1.87,4.17h1.87l5.1-11.63Zm-16.58,7.89h1.84V585h-1.84Z" transform="translate(-893.43 -518.4)"/><path class="cls-6" d="M903.72,575.21a2,2,0,0,0-.45,1.39v21.8a1.94,1.94,0,0,0,.45,1.37l.08.07,12.2-12.2v-.3l-12.2-12.2Z" transform="translate(-893.43 -518.4)"/><path class="cls-7" d="M920.07,591.72,916,587.65v-.3l4.08-4.07.09.06,4.82,2.74c1.38.79,1.38,2.07,0,2.85l-4.82,2.74Z" transform="translate(-893.43 -518.4)"/><path class="cls-8" d="M920.17,591.66,916,587.5l-12.28,12.27a1.61,1.61,0,0,0,2,.07l14.4-8.18" transform="translate(-893.43 -518.4)"/><path class="cls-9" d="M920.17,583.34l-14.4-8.19a1.63,1.63,0,0,0-2,.06L916,587.5Z" transform="translate(-893.43 -518.4)"/></g></g></svg>