<svg xmlns="http://www.w3.org/2000/svg" viewBox="0 0 466.21 466.2"><defs><style>.cls-1{fill:#fff;}.cls-2{fill:#1d1d1b;}</style></defs><g id="Lager_2" data-name="Lager 2"><g id="Lager_1-2" data-name="Lager 1"><path class="cls-1" d="M466.21,233.11c0,128.73-104.37,233.09-233.1,233.09S0,361.84,0,233.11,104.36,0,233.11,0s233.1,104.37,233.1,233.11"/><path class="cls-2" d="M233.1,12.76c-121.68,0-220.34,98.66-220.34,220.35S111.42,453.44,233.1,453.44s220.35-98.65,220.35-220.33S354.79,12.76,233.1,12.76m0,431c-116.36,0-210.68-94.33-210.68-210.69S116.74,22.41,233.1,22.41s210.7,94.33,210.7,210.7S349.47,443.8,233.1,443.8"/><path class="cls-2" d="M426.19,233.11c0,106.63-86.45,193.07-193.09,193.07S40,339.74,40,233.11,126.46,40,233.1,40s193.09,86.45,193.09,193.09"/><path class="cls-1" d="M210.82,277.34a8.65,8.65,0,0,1-.58-2.54,9.22,9.22,0,0,1-6.87,3,8.57,8.57,0,0,1-5.86-2,6.56,6.56,0,0,1-2.28-5.12,6.82,6.82,0,0,1,2.86-5.86c1.92-1.39,4.6-2.08,8.07-2.08h4v-1.9a4.66,4.66,0,0,0-1.29-3.45,5.21,5.21,0,0,0-3.81-1.28,6,6,0,0,0-3.71,1.12,3.29,3.29,0,0,0-1.49,2.69h-4.15A5.75,5.75,0,0,1,197,256.4a8.8,8.8,0,0,1,3.48-2.66,11.65,11.65,0,0,1,4.83-1,9.56,9.56,0,0,1,6.54,2.08,7.56,7.56,0,0,1,2.45,5.75V271.7a13.47,13.47,0,0,0,.85,5.28v.36ZM204,274.19a7.22,7.22,0,0,0,3.68-1,6.08,6.08,0,0,0,2.52-2.61v-4.95h-3.23q-7.59,0-7.58,4.44a3.76,3.76,0,0,0,1.29,3A5,5,0,0,0,204,274.19Z"/><path class="cls-1" d="M226.27,253.2l.14,3a8.78,8.78,0,0,1,7.22-3.48q7.65,0,7.72,8.63v15.95h-4.12v-16a5.58,5.58,0,0,0-1.2-3.86,4.78,4.78,0,0,0-3.64-1.25,6,6,0,0,0-3.53,1.07,7.2,7.2,0,0,0-2.36,2.81v17.2h-4.13V253.2Z"/><path class="cls-1" d="M248.17,265.07a14.16,14.16,0,0,1,2.63-8.93,9,9,0,0,1,13.61-.48V243.07h4.13v34.27h-3.79l-.2-2.59a8.44,8.44,0,0,1-6.9,3,8.24,8.24,0,0,1-6.83-3.44,14.26,14.26,0,0,1-2.65-9Zm4.13.47A10.69,10.69,0,0,0,254,272a5.49,5.49,0,0,0,4.69,2.32,6,6,0,0,0,5.73-3.52V259.67a6.07,6.07,0,0,0-5.69-3.41A5.51,5.51,0,0,0,254,258.6C252.86,260.16,252.3,262.48,252.3,265.54Z"/><path class="cls-1" d="M154.94,336.83a44.41,44.41,0,0,1-12.76,2.1c-7.25,0-12.23-1.81-15.55-5a17.86,17.86,0,0,1-5.26-13.34c.06-12.84,9.61-19.36,21.59-19.36a27.05,27.05,0,0,1,10.72,1.81l-2,7.9a21.28,21.28,0,0,0-8.79-1.56c-6.1,0-11.14,3.19-11.14,10.71,0,6.88,4.47,10.88,10.53,10.88a11.29,11.29,0,0,0,3.11-.32V324.3h-5v-7.69h14.49Z"/><path class="cls-1" d="M197.79,319.71c0,11.89-7.14,19.45-18.54,19.45s-17.75-8.59-17.75-18.86c0-10.76,7.05-19.3,18.37-19.3C191.75,301,197.79,309.82,197.79,319.71Zm-25.82.41c0,6.95,3,11.2,7.76,11.2s7.59-4.63,7.59-11.29c0-6.36-2.85-11.19-7.65-11.19S172,313.32,172,320.12Z"/><path class="cls-1" d="M239.73,319.71c0,11.89-7.14,19.45-18.54,19.45s-17.75-8.59-17.75-18.86c0-10.76,7-19.3,18.37-19.3C233.69,301,239.73,309.82,239.73,319.71Zm-25.82.41c0,6.95,3,11.2,7.76,11.2s7.59-4.63,7.59-11.29c0-6.36-2.85-11.19-7.65-11.19S213.91,313.32,213.91,320.12Z"/><path class="cls-1" d="M279,336.83a44.41,44.41,0,0,1-12.76,2.1c-7.25,0-12.23-1.81-15.55-5a17.86,17.86,0,0,1-5.26-13.34c.05-12.84,9.61-19.36,21.59-19.36a27.05,27.05,0,0,1,10.72,1.81l-2,7.9a21.32,21.32,0,0,0-8.79-1.56c-6.1,0-11.14,3.19-11.14,10.71,0,6.88,4.47,10.88,10.52,10.88a11.33,11.33,0,0,0,3.12-.32V324.3h-5v-7.69H279Z"/><path class="cls-1" d="M287.06,301.61H297v28.66h14.23v8.29H287.06Z"/><path class="cls-1" d="M341.1,323.66H327.82v6.81h14.84v8.09H317.92V301.61h24v8.08H327.82v6H341.1Z"/><path class="cls-1" d="M164.39,356.43v13.66h12V356.43h9.9v36.95h-9.9V378.73h-12v14.65H154.5V356.43Z"/><path class="cls-1" d="M229.81,374.54c0,11.88-7.14,19.44-18.54,19.44s-17.75-8.59-17.75-18.86c0-10.75,7-19.29,18.36-19.29C223.77,355.83,229.81,364.64,229.81,374.54ZM204,375c0,6.95,3,11.19,7.76,11.19s7.59-4.63,7.59-11.29c0-6.36-2.85-11.18-7.65-11.18S204,368.15,204,375Z"/><path class="cls-1" d="M268.26,380.15c-.13-4.19-.22-9.12-.21-14.91h-.15c-1.14,4.92-2.7,10.43-3.89,14.49l-3.66,12.88H252.6l-3.09-12.84c-.95-4-2.09-9.44-2.95-14.53h-.11c-.21,5.21-.4,10.72-.56,14.91l-.57,13.23h-9.11l2.28-36.95h13.32l2.44,9.95c1,4.11,2.11,9,2.88,13.54h.19c1-4.51,2.26-9.73,3.34-13.62l2.77-9.87h13l1.85,36.95h-9.61Z"/><path class="cls-1" d="M309.52,378.48H296.24v6.81h14.84v8.09H286.35V356.43h24v8.09H296.24v6h13.28Z"/><path class="cls-1" d="M122.94,114.08l.62,4.29.91-3.86,6.43-22.67h3.61l6.27,22.67.89,3.92.7-4.37,5-22.22h4.3l-7.87,32.48h-3.91l-6.69-23.66-.51-2.48-.51,2.48-6.94,23.66h-3.91l-7.85-32.48h4.28Z"/><path class="cls-1" d="M156.32,112a14.27,14.27,0,0,1,1.4-6.38,10.4,10.4,0,0,1,3.88-4.37,10.54,10.54,0,0,1,5.68-1.54,10.19,10.19,0,0,1,8,3.41,13.16,13.16,0,0,1,3.05,9.08v.29a14.41,14.41,0,0,1-1.35,6.33,10.3,10.3,0,0,1-3.86,4.36,10.73,10.73,0,0,1-5.77,1.56,10.17,10.17,0,0,1-7.95-3.41,13.09,13.09,0,0,1-3.05-9Zm4.15.49a10.34,10.34,0,0,0,1.86,6.45,6.32,6.32,0,0,0,10,0,11.35,11.35,0,0,0,1.85-6.91,10.28,10.28,0,0,0-1.89-6.43,6.26,6.26,0,0,0-9.93,0Q160.48,108,160.47,112.52Z"/><path class="cls-1" d="M196.74,103.89a12.86,12.86,0,0,0-2-.16,5.44,5.44,0,0,0-5.51,3.46v17.13h-4.13V100.19h4l.06,2.79a6.43,6.43,0,0,1,5.76-3.24,4.37,4.37,0,0,1,1.83.31Z"/><path class="cls-1" d="M208.86,113.15l-2.58,2.7v8.47h-4.13V90.06h4.13v20.72l2.21-2.65,7.51-7.94h5l-9.39,10.08,10.49,14h-4.85Z"/><path class="cls-1" d="M240.94,117.92a3.05,3.05,0,0,0-1.26-2.6,12.19,12.19,0,0,0-4.4-1.59,20.54,20.54,0,0,1-5-1.61,7,7,0,0,1-2.72-2.23,5.32,5.32,0,0,1-.89-3.08,6.27,6.27,0,0,1,2.51-5,9.81,9.81,0,0,1,6.42-2.05,10.13,10.13,0,0,1,6.66,2.12,6.73,6.73,0,0,1,2.55,5.42h-4.15a3.72,3.72,0,0,0-1.44-2.92,5.38,5.38,0,0,0-3.62-1.23,5.68,5.68,0,0,0-3.53,1,3.09,3.09,0,0,0-1.27,2.57,2.49,2.49,0,0,0,1.18,2.25,14.5,14.5,0,0,0,4.27,1.45,22.22,22.22,0,0,1,5,1.65,7.34,7.34,0,0,1,2.85,2.31,5.74,5.74,0,0,1,.92,3.29,6.18,6.18,0,0,1-2.58,5.19,10.89,10.89,0,0,1-6.72,2,12.08,12.08,0,0,1-5.13-1,8.33,8.33,0,0,1-3.49-2.86,6.93,6.93,0,0,1-1.26-4H230a4.24,4.24,0,0,0,1.66,3.29,6.44,6.44,0,0,0,4.09,1.21,6.61,6.61,0,0,0,3.76-1A2.92,2.92,0,0,0,240.94,117.92Z"/><path class="cls-1" d="M286.32,118.64,291,100.19h4.12l-7,24.13h-3.35L278.84,106l-5.71,18.29h-3.34l-7-24.13h4.11l4.75,18.07,5.62-18.07h3.32Z"/><path class="cls-1" d="M300.9,93.78a2.46,2.46,0,0,1,.61-1.69,2.32,2.32,0,0,1,1.82-.69,2.35,2.35,0,0,1,1.83.69,2.42,2.42,0,0,1,.62,1.69,2.36,2.36,0,0,1-.62,1.68,2.42,2.42,0,0,1-1.83.67,2.21,2.21,0,0,1-2.43-2.35Zm4.46,30.54h-4.13V100.19h4.13Z"/><path class="cls-1" d="M319.16,94.34v5.85h4.51v3.19h-4.51v15a3.36,3.36,0,0,0,.6,2.18,2.54,2.54,0,0,0,2.06.73,9.91,9.91,0,0,0,2-.27v3.33a12.28,12.28,0,0,1-3.17.44,5.16,5.16,0,0,1-4.17-1.67,7.18,7.18,0,0,1-1.4-4.75v-15h-4.4v-3.19H315V94.34Z"/><path class="cls-1" d="M334.21,103.11a8.77,8.77,0,0,1,7.14-3.37q7.65,0,7.72,8.63v15.95h-4.13v-16a5.55,5.55,0,0,0-1.19-3.86,4.8,4.8,0,0,0-3.65-1.25,6,6,0,0,0-3.52,1.07,7.38,7.38,0,0,0-2.37,2.81v17.2h-4.12V90.06h4.12Z"/><path class="cls-1" d="M124.27,170.58l-2.09,8.57H111.94l10.72-37h13.19l11,37H136.18l-2.36-8.57Zm8.19-7.3-1.71-6.65c-.56-2.09-1.26-5.1-1.84-7.28h-.11c-.54,2.18-1.09,5.22-1.63,7.32l-1.59,6.61Z"/><path class="cls-1" d="M184.76,165.92c-.12-4.19-.21-9.13-.2-14.91h-.15c-1.14,4.92-2.7,10.43-3.89,14.49l-3.66,12.88h-7.75L166,165.54c-.94-4-2.08-9.45-2.94-14.53H163c-.21,5.21-.4,10.72-.56,14.91l-.57,13.23h-9.11l2.27-37h13.33l2.44,10c1,4.11,2.11,9,2.87,13.54h.2c1-4.51,2.26-9.73,3.34-13.63l2.77-9.87h13l1.85,37H185.2Z"/><path class="cls-1" d="M212.53,170.58l-2.08,8.57H200.21l10.72-37h13.18l11,37H224.44l-2.36-8.57Zm8.2-7.3L219,156.63c-.56-2.09-1.26-5.1-1.83-7.28h-.11c-.55,2.18-1.1,5.22-1.63,7.32l-1.59,6.61Z"/><path class="cls-1" d="M239.49,173.88l16.35-23.3v-.2H241v-8.19h27.63v5.67l-15.86,22.9v.2h16.13v8.19H239.49Z"/><path class="cls-1" d="M310.68,160.3c0,11.88-7.14,19.45-18.55,19.45s-17.75-8.59-17.75-18.86c0-10.76,7.05-19.3,18.37-19.3C304.63,141.59,310.68,150.41,310.68,160.3Zm-25.82.41c0,6.95,3,11.2,7.75,11.2s7.6-4.63,7.6-11.29c0-6.36-2.85-11.19-7.65-11.19S284.86,153.91,284.86,160.71Z"/><path class="cls-1" d="M317.87,179.15v-37h11.68l5.87,11.34a110.52,110.52,0,0,1,5.79,12.95h.15a141.51,141.51,0,0,1-.74-15.55v-8.74h9.05v37H339.23L333,166.87c-2-3.92-4.45-8.89-6.22-13.35h-.19c.25,5,.37,10.55.37,16.55v9.08Z"/><path class="cls-1" d="M157.49,225.4,155.41,234H145.17L155.89,197h13.18l11,36.95H169.4L167,225.4Zm8.2-7.3L164,211.45c-.56-2.08-1.26-5.1-1.83-7.28H162c-.55,2.18-1.1,5.22-1.63,7.32l-1.59,6.61Z"/><path class="cls-1" d="M186.74,197h9.89v28.66h14.23V234H186.74Z"/><path class="cls-1" d="M240.78,219.07H227.5v6.81h14.84V234H217.6V197h24v8.08H227.5v6h13.28Z"/><path class="cls-1" d="M268.85,234l-2.73-6c-1.08-2.36-1.89-4.24-2.85-6.38h-.11c-.66,2.14-1.49,4.06-2.4,6.33L258.31,234H247.06l10.4-18.71-10-18.24h11.38l2.51,5.88c1,2.19,1.65,4,2.46,6.1h.15c.83-2.42,1.39-4,2.16-6.07l2.27-5.91h11.28l-10.05,18L280.29,234Z"/><path class="cls-1" d="M296,225.4,293.89,234H283.65L294.37,197h13.18l11,36.95H307.88l-2.36-8.57Zm8.2-7.3-1.72-6.65c-.56-2.08-1.26-5.1-1.83-7.28h-.11c-.55,2.18-1.1,5.22-1.63,7.32l-1.59,6.61Z"/></g></g></svg>